<svg width="100" height="100" viewBox="0 0 100 100" fill="none" xmlns="http://www.w3.org/2000/svg">
<circle cx="50" cy="50" r="50" fill="white"/>
<circle cx="50" cy="50" r="50" stroke="white"/>
<path d="M73.3338 45.0001H71.6671V35.0001C71.6671 34.5581 71.4915 34.1341 71.179 33.8216C70.8664 33.509 70.4425 33.3334 70.0005 33.3334H30.0005C29.6058 33.3399 29.2217 33.206 28.9165 32.9557C28.6113 32.7055 28.4048 32.355 28.3338 31.9667V31.3667C28.4048 30.9785 28.6113 30.628 28.9165 30.3777C29.2217 30.1275 29.6058 29.9936 30.0005 30.0001H69.3005C69.7425 30.0001 70.1664 29.8245 70.479 29.5119C70.7915 29.1994 70.9671 28.7754 70.9671 28.3334C70.9671 27.8914 70.7915 27.4675 70.479 27.1549C70.1664 26.8423 69.7425 26.6667 69.3005 26.6667H30.0005C28.6744 26.6667 27.4026 27.1935 26.4649 28.1312C25.5273 29.0689 25.0005 30.3407 25.0005 31.6667C24.9888 31.8666 24.9888 32.0669 25.0005 32.2667V66.5501C25.007 67.4475 25.1902 68.3347 25.5397 69.1613C25.8892 69.9879 26.398 70.7375 27.0372 71.3674C27.6764 71.9973 28.4334 72.4951 29.265 72.8324C30.0966 73.1698 30.9864 73.34 31.8838 73.3334H70.0005C70.4425 73.3334 70.8664 73.1578 71.179 72.8453C71.4915 72.5327 71.6671 72.1088 71.6671 71.6667V61.6667H73.3338C73.7758 61.6667 74.1998 61.4911 74.5123 61.1786C74.8249 60.866 75.0005 60.4421 75.0005 60.0001V46.6667C75.0005 46.2247 74.8249 45.8008 74.5123 45.4882C74.1998 45.1757 73.7758 45.0001 73.3338 45.0001ZM68.3338 70.0001H31.8838C30.9568 70.009 30.0638 69.6516 29.399 69.0055C28.7341 68.3594 28.3513 67.477 28.3338 66.5501V36.4667C28.8748 36.6235 29.4377 36.6911 30.0005 36.6667H68.3338V45.0001H56.6671C54.457 45.0001 52.3374 45.8781 50.7746 47.4409C49.2118 49.0037 48.3338 51.1233 48.3338 53.3334C48.3338 55.5435 49.2118 57.6632 50.7746 59.226C52.3374 60.7888 54.457 61.6667 56.6671 61.6667H68.3338V70.0001ZM71.6671 58.3334H56.6671C55.3411 58.3334 54.0693 57.8066 53.1316 56.8689C52.1939 55.9313 51.6671 54.6595 51.6671 53.3334C51.6671 52.0073 52.1939 50.7356 53.1316 49.7979C54.0693 48.8602 55.3411 48.3334 56.6671 48.3334H71.6671V58.3334Z" fill="#D90F0F"/>
<path d="M58.3496 55.8333C59.7303 55.8333 60.8496 54.714 60.8496 53.3333C60.8496 51.9525 59.7303 50.8333 58.3496 50.8333C56.9689 50.8333 55.8496 51.9525 55.8496 53.3333C55.8496 54.714 56.9689 55.8333 58.3496 55.8333Z" fill="white"/>
</svg>
