<svg width="100" height="100" viewBox="0 0 100 100" fill="none" xmlns="http://www.w3.org/2000/svg">
<circle cx="50" cy="50" r="50" fill="white"/>
<circle cx="50" cy="50" r="50" stroke="white"/>
<path d="M33.5937 25.9375L32.9091 26.8256L25.9375 36.1225V74.0625H74.0625V36.1225L67.0887 26.8256L66.4062 25.9375H33.5937ZM35.7812 30.3125H47.8125V34.6875H32.5L35.7812 30.3125ZM52.1875 30.3125H64.2188L67.5 34.6875H52.1875V30.3125ZM30.3125 39.0625H69.6875V69.6875H30.3125V39.0625ZM43.0284 43.4375C41.8231 43.5469 40.9328 44.6253 41.0444 45.8306C41.1559 47.0338 42.2322 47.9241 43.4375 47.8125H56.5625C57.35 47.8212 58.0828 47.41 58.4853 46.7275C58.6784 46.3922 58.7801 46.012 58.7801 45.625C58.7801 45.238 58.6784 44.8578 58.4853 44.5225C58.0828 43.84 57.3478 43.4287 56.5625 43.4375H43.0263H43.0284Z" fill="#D90F0F"/>
</svg>
