<svg width="100" height="100" viewBox="0 0 100 100" fill="none" xmlns="http://www.w3.org/2000/svg">
<circle cx="50" cy="50" r="50" fill="white"/>
<circle cx="50" cy="50" r="50" stroke="white"/>
<path d="M75.783 32.2834C75.5209 32.152 75.2289 32.092 74.9362 32.1096C74.6436 32.1272 74.3608 32.2216 74.1163 32.3834L58.333 42.95V33.7667C58.3335 33.4497 58.2436 33.1392 58.0739 32.8715C57.9042 32.6038 57.6616 32.39 57.3747 32.2553C57.0878 32.1206 56.7684 32.0705 56.454 32.1109C56.1396 32.1513 55.8432 32.2805 55.5997 32.4834L42.4663 43.3334H36.6663V27.7C36.6758 27.3148 36.5514 26.9381 36.3143 26.6342C36.0773 26.3304 35.7423 26.118 35.3663 26.0334L28.6997 24.5334C28.4537 24.4782 28.1984 24.4795 27.953 24.5372C27.7077 24.595 27.4786 24.7076 27.283 24.8667C27.0829 25.0288 26.9231 25.235 26.8161 25.4693C26.7091 25.7035 26.6579 25.9593 26.6663 26.2167V43.3334H24.9997C24.5576 43.3334 24.1337 43.509 23.8212 43.8215C23.5086 44.1341 23.333 44.558 23.333 45V71.6667C23.333 72.1087 23.5086 72.5326 23.8212 72.8452C24.1337 73.1578 24.5576 73.3334 24.9997 73.3334H74.9997C75.4417 73.3334 75.8656 73.1578 76.1782 72.8452C76.4907 72.5326 76.6663 72.1087 76.6663 71.6667V33.7667C76.6686 33.4624 76.5874 33.1632 76.4317 32.9017C76.276 32.6402 76.0516 32.4264 75.783 32.2834ZM29.9997 28.3334L33.333 29.0667V43.3334H29.9997V28.3334ZM73.333 70H26.6663V46.6667H43.0497C43.4391 46.6675 43.8165 46.5318 44.1163 46.2834L54.9997 37.2834V46.0834C54.9992 46.3861 55.0812 46.6833 55.237 46.943C55.3927 47.2027 55.6162 47.415 55.8835 47.5572C56.1508 47.6995 56.4518 47.7662 56.7542 47.7502C57.0565 47.7343 57.3488 47.6362 57.5997 47.4667L73.333 36.9V70Z" fill="#D90F0F"/>
<path d="M30 49.9836H43.3333V53.317H30V49.9836Z" fill="#D90F0F"/>
<path d="M30 56.6501H43.3333V59.9835H30V56.6501Z" fill="#D90F0F"/>
<path d="M30 63.3169H43.3333V66.6502H30V63.3169Z" fill="#D90F0F"/>
<path d="M51.666 51.6501H54.9993V56.6501H51.666V51.6501Z" fill="#D90F0F"/>
<path d="M51.666 61.6501H54.9993V66.6501H51.666V61.6501Z" fill="#D90F0F"/>
<path d="M58.333 51.6501H61.6663V56.6501H58.333V51.6501Z" fill="#D90F0F"/>
<path d="M58.333 61.6501H61.6663V66.6501H58.333V61.6501Z" fill="#D90F0F"/>
<path d="M65 51.6501H68.3333V56.6501H65V51.6501Z" fill="#D90F0F"/>
<path d="M65 61.6501H68.3333V66.6501H65V61.6501Z" fill="#D90F0F"/>
</svg>
