<svg width="100" height="100" viewBox="0 0 100 100" fill="none" xmlns="http://www.w3.org/2000/svg">
<circle cx="50" cy="50" r="50" fill="white"/>
<circle cx="50" cy="50" r="50" stroke="white"/>
<path d="M78.9038 45.1304L73.1398 34.0923C72.6815 33.2241 71.9024 32.5691 70.9683 32.2668C70.0342 31.9645 69.0191 32.0388 68.139 32.4739L62.6827 35.202H58.842L51.1084 31.7023C50.2928 31.3337 49.3723 31.2686 48.5129 31.5188L37.1054 34.8446L31.8613 32.2227C30.9811 31.7879 29.966 31.7137 29.032 32.016C28.098 32.3182 27.3187 32.973 26.8602 33.841L21.0962 44.8794C20.8657 45.3208 20.7255 45.8037 20.6837 46.2999C20.6418 46.7962 20.6993 47.2957 20.8526 47.7695C21.0059 48.2433 21.252 48.6818 21.5766 49.0594C21.9012 49.4371 22.2978 49.7463 22.7431 49.9691L28.3681 52.7816L41.0309 62.6834C41.4444 63.0076 41.9217 63.2406 42.4316 63.3673L56.0152 66.7634C56.31 66.837 56.6126 66.8742 56.9164 66.8741C57.9132 66.8742 58.8696 66.4799 59.5766 65.7772L68.2009 57.1527C68.2102 57.1435 68.2182 57.1334 68.2271 57.1243L68.262 57.0868C68.2747 57.0727 68.2878 57.0596 68.3002 57.0453L71.8034 52.947L77.2569 50.2203C77.7023 49.9975 78.0988 49.6883 78.4234 49.3106C78.748 48.933 78.9942 48.4944 79.1475 48.0206C79.3008 47.5468 79.3582 47.0472 79.3164 46.551C79.2745 46.0548 79.1343 45.5718 78.9038 45.1304ZM66.5759 53.2911L57.6652 46.8106C57.341 46.5747 56.9496 46.449 56.5487 46.452C56.1477 46.4549 55.7582 46.5864 55.4375 46.827L52.4375 49.077C51.4619 49.8028 50.2784 50.1948 49.0625 50.1948C47.8466 50.1948 46.6631 49.8028 45.6875 49.077L44.4172 48.1241L53.5892 38.9518H58.4277L58.4363 38.9523L58.4427 38.9518H61.9888L68.3764 51.1848L66.5759 53.2911ZM30.1845 35.5766L34.3297 37.6494L28.5657 48.6875L24.4203 46.6149L30.1845 35.5766ZM56.9249 63.1255L43.3412 59.7294L31.7595 50.6731L38.143 38.4481L49.5627 35.1191L51.3673 35.9356C51.2152 36.0464 51.0715 36.1683 50.9375 36.3003L41.7652 45.4726C41.3854 45.8525 41.0916 46.3096 40.9037 46.8129C40.7159 47.3163 40.6384 47.8541 40.6764 48.39C40.7145 48.9259 40.8673 49.4473 41.1245 49.9191C41.3817 50.3908 41.7372 50.8017 42.167 51.1241L43.4375 52.0766C45.0634 53.2863 47.036 53.9396 49.0625 53.9396C51.0891 53.9396 53.0616 53.2863 54.6875 52.0766L56.5796 50.6577L63.9976 56.0525L56.9249 63.1255ZM75.5797 46.8662L71.4343 48.939L65.6703 37.9004L69.8157 35.828L75.5818 46.865L75.5797 46.8662ZM48.0688 70.3442C48.0093 70.5832 47.9033 70.8081 47.7568 71.0061C47.6103 71.2041 47.4262 71.3712 47.215 71.4979C47.0039 71.6246 46.7697 71.7084 46.5261 71.7445C46.2825 71.7806 46.0342 71.7683 45.7953 71.7083L38.7313 69.9425C38.1582 69.7984 37.627 69.5216 37.1804 69.1346L31.895 64.5402C31.522 64.2133 31.2937 63.7519 31.2601 63.2571C31.2264 62.7623 31.3902 62.2743 31.7156 61.9C32.0409 61.5256 32.5013 61.2955 32.996 61.2598C33.4907 61.2242 33.9794 61.386 34.355 61.7098L39.6409 66.3043L46.7049 68.0705C47.1873 68.1911 47.602 68.4984 47.8578 68.9248C48.1136 69.3511 48.1893 69.8619 48.0688 70.3442Z" fill="#D90F0F"/>
</svg>
