<svg width="100" height="100" viewBox="0 0 100 100" fill="none" xmlns="http://www.w3.org/2000/svg">
<circle cx="50" cy="50" r="50" fill="white"/>
<circle cx="50" cy="50" r="50" stroke="white"/>
<path d="M56.9647 58.5715C58.2434 58.5715 59.4698 59.0795 60.374 59.9837C61.2782 60.8879 61.7861 62.1142 61.7861 63.393V66.6115L61.769 66.843C61.1047 71.4008 57.0118 73.5908 50.144 73.5908C43.3018 73.5908 39.1426 71.4265 38.2447 66.9222L38.2147 66.6072V63.393C38.2147 62.1142 38.7227 60.8879 39.6269 59.9837C40.5311 59.0795 41.7574 58.5715 43.0361 58.5715H56.9647ZM56.9647 61.7858H43.0361C42.6099 61.7858 42.2011 61.9551 41.8997 62.2565C41.5983 62.5579 41.429 62.9667 41.429 63.393V66.4358C42.029 69.0072 44.7504 70.3765 50.144 70.3765C55.5354 70.3765 58.1368 69.0244 58.5718 66.4851V63.393C58.5718 62.9667 58.4025 62.5579 58.1011 62.2565C57.7997 61.9551 57.3909 61.7858 56.9647 61.7858ZM59.0947 45.7122L70.8933 45.7144C72.172 45.7144 73.3983 46.2224 74.3025 47.1266C75.2067 48.0307 75.7147 49.2571 75.7147 50.5358V53.7544L75.6976 53.9858C75.0333 58.5437 70.9404 60.7337 64.0726 60.7337L63.3976 60.7272C62.7648 59.2019 61.6114 57.9505 60.1426 57.1958C61.2461 57.4101 62.5533 57.5194 64.0726 57.5194C69.464 57.5194 72.0654 56.1672 72.5004 53.628V50.5358C72.5004 50.1096 72.3311 49.7008 72.0297 49.3994C71.7283 49.098 71.3195 48.9287 70.8933 48.9287H59.6433C59.6433 47.8015 59.4504 46.7172 59.0947 45.7122ZM29.1076 45.7144L40.9061 45.7122C40.6035 46.5683 40.4239 47.4629 40.3726 48.3694L40.3576 48.9287H29.1076C28.6813 48.9287 28.2725 49.098 27.9711 49.3994C27.6697 49.7008 27.5004 50.1096 27.5004 50.5358V53.5787C28.1004 56.1501 30.8218 57.5194 36.2154 57.5194C37.5483 57.5194 38.7097 57.4358 39.7126 57.273C38.31 58.0351 37.211 59.2551 36.599 60.7294L36.2133 60.7337C29.3733 60.7337 25.214 58.5694 24.3161 54.0651L24.2861 53.7501V50.5358C24.2861 49.2571 24.7941 48.0307 25.6983 47.1266C26.6025 46.2224 27.8288 45.7144 29.1076 45.7144ZM50.0004 41.4287C51.9895 41.4287 53.8972 42.2189 55.3037 43.6254C56.7102 45.0319 57.5004 46.9396 57.5004 48.9287C57.5004 50.9178 56.7102 52.8255 55.3037 54.232C53.8972 55.6385 51.9895 56.4287 50.0004 56.4287C48.0113 56.4287 46.1036 55.6385 44.6971 54.232C43.2906 52.8255 42.5004 50.9178 42.5004 48.9287C42.5004 46.9396 43.2906 45.0319 44.6971 43.6254C46.1036 42.2189 48.0113 41.4287 50.0004 41.4287ZM50.0004 44.643C48.8638 44.643 47.7737 45.0945 46.97 45.8982C46.1662 46.7019 45.7147 47.792 45.7147 48.9287C45.7147 50.0653 46.1662 51.1554 46.97 51.9591C47.7737 52.7629 48.8638 53.2144 50.0004 53.2144C51.1371 53.2144 52.2271 52.7629 53.0309 51.9591C53.8346 51.1554 54.2861 50.0653 54.2861 48.9287C54.2861 47.792 53.8346 46.7019 53.0309 45.8982C52.2271 45.0945 51.1371 44.643 50.0004 44.643ZM63.929 28.5715C65.9181 28.5715 67.8258 29.3617 69.2323 30.7682C70.6388 32.1748 71.429 34.0824 71.429 36.0715C71.429 38.0607 70.6388 39.9683 69.2323 41.3748C67.8258 42.7814 65.9181 43.5715 63.929 43.5715C61.9399 43.5715 60.0322 42.7814 58.6257 41.3748C57.2192 39.9683 56.429 38.0607 56.429 36.0715C56.429 34.0824 57.2192 32.1748 58.6257 30.7682C60.0322 29.3617 61.9399 28.5715 63.929 28.5715ZM36.0718 28.5715C38.061 28.5715 39.9686 29.3617 41.3751 30.7682C42.7817 32.1748 43.5718 34.0824 43.5718 36.0715C43.5718 38.0607 42.7817 39.9683 41.3751 41.3748C39.9686 42.7814 38.061 43.5715 36.0718 43.5715C34.0827 43.5715 32.1751 42.7814 30.7685 41.3748C29.362 39.9683 28.5718 38.0607 28.5718 36.0715C28.5718 34.0824 29.362 32.1748 30.7685 30.7682C32.1751 29.3617 34.0827 28.5715 36.0718 28.5715ZM63.929 31.7858C62.7923 31.7858 61.7023 32.2373 60.8985 33.0411C60.0948 33.8448 59.6433 34.9349 59.6433 36.0715C59.6433 37.2082 60.0948 38.2983 60.8985 39.102C61.7023 39.9057 62.7923 40.3572 63.929 40.3572C65.0656 40.3572 66.1557 39.9057 66.9594 39.102C67.7632 38.2983 68.2147 37.2082 68.2147 36.0715C68.2147 34.9349 67.7632 33.8448 66.9594 33.0411C66.1557 32.2373 65.0656 31.7858 63.929 31.7858ZM36.0718 31.7858C34.9352 31.7858 33.8451 32.2373 33.0414 33.0411C32.2377 33.8448 31.7861 34.9349 31.7861 36.0715C31.7861 37.2082 32.2377 38.2983 33.0414 39.102C33.8451 39.9057 34.9352 40.3572 36.0718 40.3572C37.2085 40.3572 38.2986 39.9057 39.1023 39.102C39.906 38.2983 40.3576 37.2082 40.3576 36.0715C40.3576 34.9349 39.906 33.8448 39.1023 33.0411C38.2986 32.2373 37.2085 31.7858 36.0718 31.7858Z" fill="#D90F0F"/>
</svg>
